<svg xmlns="http://www.w3.org/2000/svg" width="417.562" height="94.333" viewBox="0 0 417.562 94.333"><g fill="#007CC2"><path d="M69.406 75.023h16.852v16.852h-16.852zM46.938 63.789h16.852v28.086h-16.852zM24.469 52.555h16.852v39.32h-16.852zM2 41.32h16.852v50.555h-16.852zM82.822 39.137l-58.353-37.137 47.746 47.746-8.426 8.426h28.086v-28.086z"/></g><g fill="#ABACAD"><path d="M389.391 75.023h16.852v16.852h-16.852zM366.922 63.789h16.852v28.086h-16.852zM344.453 52.555h16.852v39.32h-16.852zM321.984 41.32h16.852v50.555h-16.852zM402.807 39.137l-58.354-37.137 47.746 47.746-8.426 8.426h28.086v-28.086z"/></g></svg>