<svg xmlns="http://www.w3.org/2000/svg" width="88.496" height="92.996" viewBox="0 0 88.496 92.996"><g fill="#F1F3F4"><path d="M18.512 54.186h25.375v25.375h-25.375zM48.115 54.186h25.375v25.375h-25.375zM14.282 33.04h29.604v16.917h-29.604zM48.115 33.04h29.604v16.917h-29.604zM33.313 11.894c-5.286 0-10.573 5.286-10.573 10.573 0 10.572 21.146 10.572 21.146 10.572 0-15.859-5.286-21.145-10.573-21.145zm-6.343 10.573c0-2.966 3.378-6.344 6.344-6.344 3.254 0 5.542 4.743 6.17 12.417-5.766-.663-12.514-2.565-12.514-6.073zM69.261 22.467c0-5.287-5.286-10.573-10.572-10.573-5.287 0-10.573 5.286-10.573 21.146-.001 0 21.145 0 21.145-10.573zm-16.743 6.065c.632-7.668 2.916-12.409 6.171-12.409 2.965 0 6.344 3.378 6.344 6.344-.001 3.488-6.75 5.393-12.515 6.065zM43.886 28.811h4.229v4.229h-4.229z"/></g></svg>