<svg xmlns="http://www.w3.org/2000/svg" width="114.167" height="126.5" viewBox="0 0 114.167 126.5"><g fill="#CCE6F5"><path d="M60.59 83.385h-2.511v11.809h2.531c2.267-.06 2.53-1.477 2.53-2.53v-6.748c.001-1.056-.263-2.473-2.55-2.531zM47.134 74.949h2.511v-11.808h-2.518c-2.28.065-2.544 1.476-2.544 2.53v6.748c0 1.055.264 2.471 2.551 2.53zM70.731 35.305c-6.748-6.748 13.496-13.496 13.496-20.244s-13.496-6.748-26.992 0c-13.495-6.748-26.991-6.748-26.991 0s20.243 13.496 13.496 20.244c-6.748 6.748-33.74 20.244-33.74 53.984 0 33.739 5.838 26.992 47.235 26.992 39.579 0 47.236 5.838 47.236-26.992.001-33.74-26.992-47.236-33.74-53.984zm-10.121 39.644c4.408 0 10.965 2.92 10.965 10.966v6.748c0 8.046-6.557 10.965-10.965 10.965h-2.531v2.531c0 2.326-1.891 4.217-4.217 4.217s-4.218-1.891-4.218-4.217v-2.531h-9.278c-2.326 0-4.218-1.891-4.218-4.217s1.892-4.218 4.218-4.218h9.278v-11.808h-2.53c-4.409 0-10.966-2.92-10.966-10.966v-6.748c0-8.046 6.557-10.966 10.966-10.966h2.53v-2.53c0-2.326 1.892-4.218 4.218-4.218s4.217 1.892 4.217 4.218v2.53h9.278c2.326 0 4.218 1.892 4.218 4.218s-1.892 4.218-4.218 4.218h-9.278v11.809h2.531z"/></g></svg>