<svg xmlns="http://www.w3.org/2000/svg" width="417.562" height="94.333" viewBox="0 0 417.562 94.333"><g fill="#007CC2"><path d="M133.314 60.795c-.329-.644-.699-1.363-1.102-2.128.34-.357.552-.841.552-1.372 0-1.104-.896-2-1.998-2h-.402l-.437-.756c-2.59-4.423-5.824-8.771-10.488-14.1-7.068-8.08-13.059-13.088-19.426-16.244-6.56-3.248-13.797-4.695-23.463-4.695-4.915 0-10.277.259-16.197 2.152-7.711 2.464-14.2 7.147-19.285 13.919-.085.113-.154.272-.319.358l-.492.028c-12.36.085-24.492 4.395-29.091 8.565l-.006.002-2.153 1.942c-.475.229-3.544.149-3.544 2.143v3.656l.009.175.001.823c-.26.656-.503 1.334-.736 2.031h-.74c-1.102 0-1.998.895-1.998 2 0 1.058.824 1.921 1.866 1.988-.074 1.273.055 2.164.055 2.164 1.399.118 2.236-.463 2.395-1.644.839-6.15 7.209-10.351 13.718-10.351 7.114 0 13.029 5.233 14.097 12.051.113.726 1.268 3.535 5.95 3.535h47.014c3.719 0 4.148-2.764 4.252-3.462 1.035-6.855 6.969-12.127 14.108-12.127 6.637 0 12.233 4.558 13.818 10.707.294 1.138 1.245 3.565 6.86 3.565 2.946 0 5.004-.326 5.771-.47.229-.015.457-.072.675-.182.831-.423 1.162-1.439.736-2.273zm-59.105-23.191h-28.239c-.605 0-1.096-.482-1.096-1.076 0-.162.038-.313.099-.448 9.732-11.749 22.194-13.04 29.234-13.18l.002 14.704zm35.407 0h-32.025v-14.716c13.771.157 22.755 3.497 32.625 12.785.118.113 1.837 1.931-.6 1.931z"/><circle cx="105.46" cy="63.723" r="2.275"/><path d="M105.46 53.097c-5.861 0-10.628 4.764-10.628 10.625 0 5.858 4.767 10.625 10.628 10.625 5.856 0 10.62-4.767 10.62-10.625 0-5.861-4.766-10.625-10.62-10.625zm0 17.023c-3.532 0-6.4-2.873-6.4-6.397 0-3.53 2.872-6.398 6.4-6.398 3.526 0 6.395 2.872 6.395 6.398 0 3.527-2.871 6.397-6.395 6.397z"/><circle cx="20.036" cy="63.723" r="2.275"/><path d="M20.036 53.097c-.916 0-1.804.117-2.654.335-4.581 1.18-7.972 5.344-7.972 10.291 0 4.941 3.393 9.107 7.972 10.289.85.218 1.738.336 2.654.336 5.858 0 10.626-4.767 10.626-10.625-.002-5.862-4.768-10.626-10.626-10.626zm-6.398 10.625c0-3.532 2.871-6.399 6.396-6.399 3.528 0 6.399 2.872 6.399 6.399 0 3.526-2.871 6.395-6.399 6.395-3.525.003-6.396-2.867-6.396-6.395z"/></g><g fill="#ABACAD"><path d="M411.814 60.795c-.33-.644-.699-1.363-1.103-2.128.341-.357.552-.841.552-1.372 0-1.104-.896-2-1.998-2h-.401l-.437-.756c-2.59-4.423-5.824-8.771-10.488-14.1-7.068-8.08-13.059-13.088-19.426-16.244-6.561-3.249-13.797-4.696-23.463-4.696-4.915 0-10.277.259-16.197 2.152-7.711 2.464-14.201 7.147-19.285 13.919-.085.113-.154.272-.318.358l-.492.028c-12.359.085-24.492 4.395-29.091 8.565l-.007.002-2.152 1.942c-.475.229-3.544.149-3.544 2.143v3.656l.009.175.002.823c-.26.656-.504 1.334-.736 2.031h-.74c-1.103 0-1.998.895-1.998 2 0 1.058.824 1.921 1.865 1.988-.074 1.273.056 2.164.056 2.164 1.399.118 2.235-.463 2.396-1.644.838-6.15 7.209-10.351 13.717-10.351 7.115 0 13.029 5.233 14.098 12.051.113.726 1.268 3.535 5.95 3.535h47.014c3.72 0 4.147-2.764 4.252-3.462 1.035-6.855 6.97-12.127 14.108-12.127 6.637 0 12.232 4.558 13.817 10.707.294 1.138 1.245 3.565 6.86 3.565 2.945 0 5.004-.326 5.771-.47.229-.015.457-.072.675-.182.828-.422 1.16-1.438.734-2.272zm-59.105-23.191h-28.238999999999997c-.604 0-1.096-.482-1.096-1.076 0-.162.038-.313.099-.448 9.732-11.749 22.195-13.04 29.234-13.18l.002 14.704zm35.406 0h-32.024v-14.716c13.771.157 22.755 3.497 32.624 12.785.119.113 1.838 1.931-.6 1.931z"/><circle cx="383.96" cy="63.723" r="2.275"/><path d="M383.96 53.097c-5.86 0-10.628 4.764-10.628 10.625 0 5.858 4.768 10.625 10.628 10.625 5.856 0 10.62-4.767 10.62-10.625 0-5.861-4.766-10.625-10.62-10.625zm0 17.023c-3.532 0-6.4-2.873-6.4-6.397 0-3.53 2.872-6.398 6.4-6.398 3.526 0 6.396 2.872 6.396 6.398-.001 3.527-2.872 6.397-6.396 6.397z"/><circle cx="298.535" cy="63.723" r="2.275"/><path d="M298.535 53.097c-.915 0-1.804.117-2.653.335-4.581 1.18-7.972 5.344-7.972 10.291 0 4.941 3.393 9.107 7.972 10.289.85.218 1.738.336 2.653.336 5.858 0 10.627-4.767 10.627-10.625-.002-5.862-4.768-10.626-10.627-10.626zm-6.397 10.625c0-3.532 2.871-6.399 6.396-6.399 3.529 0 6.399 2.872 6.399 6.399 0 3.526-2.87 6.395-6.399 6.395-3.525.003-6.396-2.867-6.396-6.395z"/></g></svg>