<svg xmlns="http://www.w3.org/2000/svg" width="70.136" height="54.298" viewBox="0 0 70.136 54.298"><g fill="#1A89C8"><path d="M36.357 33.101c-4.575-1.907-5.657-2.57-5.657-2.57l-.045-4.385s1.713-1.319 2.25-5.448c1.066.312 2.194-1.597 2.255-2.603.058-.967-.15-3.656-1.457-3.388.265-2.025.456-3.845.366-4.809-.338-3.527-3.81-7.243-9.148-7.243-5.332 0-8.808 3.716-9.149 7.243-.09.964.102 2.783.37 4.809-1.311-.269-1.518 2.421-1.457 3.388.062 1.006 1.185 2.914 2.259 2.603.529 4.129 2.247 5.448 2.247 5.448l-.045 4.385s-1.087.663-5.653 2.57c-4.583 1.905-9.203 3.239-10.574 5.385-1.237 1.917-.867 13.842-.867 13.842h45.741s.367-11.925-.866-13.842c-1.372-2.146-5.995-3.48-10.57-5.385zM67.854 39.89c-1.232-1.921-1.217-3.122-5.327-4.835-4.11-1.714-5.087-2.312-5.087-2.312l-.033-3.938s1.539-1.185 2.019-4.894c.961.278 1.97-1.437 2.027-2.339.049-.868-.135-3.284-1.311-3.044.235-1.819.415-3.453.333-4.32-.305-3.168-3.426-6.506-8.221-6.506-4.794 0-7.912 3.338-8.221 6.506-.082.867.089 2.501.333 4.32-1.18-.24-1.367 2.176-1.311 3.044.058.902 1.066 2.617 2.027 2.339.479 3.709 2.022 4.894 2.022 4.894l-1.355 1.061c3.847 1.823 8.047 4.399 8.047 6.979v15.482h14.834c.001.001.335-10.711-.776-12.437z"/></g></svg>