<svg xmlns="http://www.w3.org/2000/svg" width="417.562" height="94.333" viewBox="0 0 417.562 94.333"><g fill="#007CC2"><path stroke="#fff" stroke-width="2.17" d="M42.587 4.373M42.587 12.984"/><path d="M99.645 45.4c-.621-1.135-3.105-5.789-10.396-10.67-5.539-3.708-10.898-4.678-13.23-4.696-3.829-.032-6.783.778-7.643 4.242-.836 3.379 3.071 5.508 5.927 6.944l-9.882 4.25h-18.963v3.992h-5.742v-3.992h-24.619l4.256-9.655-1.301-4.306-6.119 14.033-9.933 6.006.016 25.571h4.486l-.004 8.373c0 3.594 2.901 6.51 6.496 6.51 3.593 0 6.508-2.918 6.508-6.51l-.008-8.373h43.387l-.006 8.373c0 3.594 2.912 6.51 6.5 6.51 3.596 0 6.506-2.918 6.506-6.51l-.006-8.373h4.482l.021-25.571-3.448-2.085 6.784-2.92c2.438 1.826 5.117 5.209 6.369 7.138 0 0 .676 1.242 1.125 2.813.4 1.402.612 3.396.686 4.179v26.231c0 2.774 2.248 5.022 5.023 5.022 2.774 0 5.024-2.248 5.024-5.022v-31.217c.003-2.199-.264-6.582-2.296-10.287zm-86.812 20.429c-3.014 0-5.443-2.438-5.443-5.464 0-3.006 2.431-5.444 5.443-5.444 3.008 0 5.454 2.438 5.454 5.444.001 3.024-2.446 5.464-5.454 5.464zm13.332 2.081l.006-9.803c0-1.359 1.098-2.459 2.451-2.459l25.942-.047c1.356 0 2.454 1.115 2.454 2.464l.006 9.812-30.859.033zm43.376-2.081c-3.006 0-5.445-2.438-5.445-5.464 0-3.006 2.439-5.444 5.445-5.444 3.011 0 5.447 2.438 5.447 5.444 0 3.024-2.436 5.464-5.447 5.464z"/></g><path fill="#007CC2" d="M65.16 8.393h-19.702v-4.976h-5.742v4.977h-20.452c-4.176 0-7.266 2.736-5.736 8.202l4.506 14.982 7.375-16.889 3.095.046-9.196 21.081 1.929 6.413s9.688-2.629 20.335-2.629c10.885 0 21.827 2.629 21.827 2.629l2.193-6.962c-1.385 1.29-3.33 1.931-5.314 1.536-3.287-.657-5.426-3.893-4.76-7.218.665-3.335 3.885-5.49 7.171-4.828 2.444.486 4.236 2.387 4.736 4.69l4.048-12.851c.773-4.531-1.469-8.203-6.313-8.203z"/><g fill="#ABACAD"><path d="M352.588 4.373M352.588 12.984"/><path d="M409.645 45.4c-.621-1.135-3.105-5.789-10.396-10.67-5.539-3.708-10.898-4.678-13.23-4.696-3.829-.032-6.783.778-7.643 4.242-.836 3.379 3.071 5.508 5.927 6.944l-9.882 4.25h-18.961v3.992h-5.742v-3.992h-24.619l4.256-9.655-1.302-4.306-6.119 14.033-9.934 6.006.016 25.571h4.486l-.004 8.373c0 3.594 2.9 6.51 6.496 6.51 3.594 0 6.508-2.918 6.508-6.51l-.008-8.373h43.387l-.006 8.373c0 3.594 2.912 6.51 6.5 6.51 3.596 0 6.506-2.918 6.506-6.51l-.006-8.373h4.482l.021-25.571-3.448-2.085 6.784-2.92c2.438 1.826 5.117 5.209 6.369 7.138 0 0 .676 1.242 1.125 2.813.4 1.402.612 3.396.686 4.179v26.231c0 2.774 2.248 5.022 5.023 5.022 2.774 0 5.024-2.248 5.024-5.022v-31.217c.003-2.199-.264-6.582-2.296-10.287zm-86.811 20.429c-3.015 0-5.443-2.438-5.443-5.464 0-3.006 2.431-5.444 5.443-5.444 3.008 0 5.453 2.438 5.453 5.444 0 3.024-2.445 5.464-5.453 5.464zm13.33 2.081l.006-9.803c0-1.359 1.098-2.459 2.451-2.459l25.942-.047c1.356 0 2.454 1.115 2.454 2.464l.006 9.812-30.859.033zm43.377-2.081c-3.006 0-5.445-2.438-5.445-5.464 0-3.006 2.439-5.444 5.445-5.444 3.011 0 5.447 2.438 5.447 5.444 0 3.024-2.436 5.464-5.447 5.464z"/></g><path fill="#ABACAD" d="M375.16 8.393h-19.701v-4.976h-5.742v4.977h-20.453c-4.176 0-7.266 2.736-5.736 8.202l4.506 14.982 7.375-16.889 3.096.046-9.196 21.081 1.929 6.413s9.688-2.629 20.335-2.629c10.886 0 21.827 2.629 21.827 2.629l2.193-6.962c-1.385 1.29-3.33 1.931-5.314 1.536-3.287-.657-5.426-3.893-4.76-7.218.665-3.335 3.885-5.49 7.171-4.828 2.444.486 4.236 2.387 4.736 4.69l4.048-12.851c.772-4.531-1.47-8.203-6.314-8.203z"/></svg>