<svg xmlns="http://www.w3.org/2000/svg" width="130.74" height="192.216" viewBox="0 0 130.74 192.216"><g fill="#CCE6F5"><path d="M103.554 110.037c11.216-10.08 18.269-24.698 18.269-40.96-.001-30.418-24.654-55.077-55.074-55.077-30.417 0-55.076 24.659-55.076 55.077 0 16.262 7.056 30.88 18.273 40.96l-19.946 54.806 28.409-9.396 15.621 25.422 12.72-34.947 12.719 34.947 15.619-25.422 28.413 9.396-19.947-54.806zm-36.805 8.153c-27.124 0-49.114-21.991-49.114-49.113 0-27.129 21.99-49.119 49.114-49.119 27.128 0 49.116 21.991 49.116 49.119 0 27.122-21.988 49.113-49.116 49.113zM66.749 24.891c-24.343 0-44.082 19.736-44.082 44.084 0 24.339 19.738 44.078 44.082 44.078 24.347 0 44.082-19.739 44.082-44.078-.002-24.348-19.735-44.084-44.082-44.084zm-7.973 66.885l-8.556-4.578-8.62 4.45 1.71-9.548-6.896-6.825 9.609-1.326 4.357-8.666 4.232 8.731 9.592 1.465-7 6.719 1.572 9.578zm7.886-33.349l-8.623 4.45 1.713-9.551-6.897-6.822 9.61-1.323 4.359-8.668 4.229 8.735 9.591 1.465-6.998 6.721 1.572 9.569-8.556-4.576zm24.996 33.349l-8.556-4.578-8.621 4.45 1.709-9.548-6.897-6.825 9.612-1.326 4.358-8.666 4.232 8.731 9.588 1.465-6.997 6.719 1.572 9.578z"/></g></svg>