<?xml version="1.0" encoding="utf-8"?>
<!-- Generator: Adobe Illustrator 16.2.1, SVG Export Plug-In . SVG Version: 6.00 Build 0)  -->
<!DOCTYPE svg PUBLIC "-//W3C//DTD SVG 1.1//EN" "http://www.w3.org/Graphics/SVG/1.1/DTD/svg11.dtd">
<svg version="1.1" id="Icons" xmlns="http://www.w3.org/2000/svg" xmlns:xlink="http://www.w3.org/1999/xlink" x="0px" y="0px"
	 width="417.562px" height="94.333px" viewBox="0 0 417.562 94.333" enable-background="new 0 0 417.562 94.333"
	 xml:space="preserve">
<g>
	<path fill="#007CC2" d="M16.824,26.524l2.386,1.754l4.393-6.943l-1.923-1.414c-1.516-1.115-3.427-1.091-4.268,0.054l-1.807,2.456
		C14.763,23.576,15.308,25.408,16.824,26.524z"/>
	<path fill="#007CC2" d="M8.967,32.242l5.279,3.883l4.392-6.943l-4.816-3.542c-1.514-1.114-3.425-1.09-4.268,0.054l-1.807,2.456
		C6.906,29.293,7.451,31.128,8.967,32.242z"/>
	<path fill="#007CC2" d="M5.324,40.922l4.017,2.956l4.392-6.943l-3.553-2.613c-1.516-1.116-3.427-1.089-4.268,0.054l-1.807,2.456
		C3.263,37.977,3.808,39.808,5.324,40.922z"/>
	<path fill="#007CC2" d="M2.888,48.787l2.285,1.68l3.794-5.998l-1.883-1.385c-1.311-0.963-2.96-0.942-3.688,0.047l-1.561,2.122
		C1.106,46.241,1.58,47.824,2.888,48.787z"/>
	<path fill="#007CC2" d="M81.256,55.669l-2.27-1.37c-2.414-1.456-4.97-1.641-5.869-0.475c-0.26,0.745-0.656,1.445-1.197,2.053
		L60.426,75.462c-0.436,0.519-1.515,2.062-2.731,3.843l-2.739,4.537c-0.797,1.32,0.588,3.617,3.094,5.132l2.267,1.37
		c2.507,1.512,5.185,1.669,5.983,0.348l18.049-29.89C85.147,59.479,83.76,57.182,81.256,55.669z"/>
	<path fill="#007CC2" d="M69.864,54.166c0.706-0.752,1.032-1.772,0.89-2.799c-0.1-0.809-0.473-1.543-1.053-2.09l-6.434-6.036
		l-0.971-0.914l-0.975-0.914l-2.012-1.888l-8.029-7.539c-1.281-1.204-3.424-1.187-4.679,0.02c-0.298,0.656-1.333,3.354,0.118,6.433
		l4.196,6.377c1.155,1.758,1.986,3.002,2.587,3.889c1.173,1.739,1.449,2.087,1.465,2.107l0.229,0.281l0.543,0.673l-0.874,0.865
		c-0.013,0.014-0.646,0.619-1.69,1.66c-1.27,1.263-3.148,3.17-5.289,5.453c-3.119,3.333-7.987,11.509-9.704,14.456l-1.326,1.443
		c0,0-0.858,0.855-1.892,0.392c-1.038-0.465-0.849-0.575-1.399-0.924L8.448,59.221c-1.276-0.807-1.674-2.461-0.893-3.697
		l1.427-2.255l3.794-5.998l0.38-0.601l4.388-6.934l0.696-1.102l4.123-6.516l0.656-1.036l4.392-6.944l7.206-11.386
		c0.781-1.236,2.447-1.585,3.723-0.778l25.117,15.891c1.275,0.808,1.675,2.463,0.893,3.699l-3.584,5.665l2.012,1.887l9.148-14.458
		c0.65-1.028,0.425-2.344-0.507-2.933L40.998,2.477c-0.292-0.185-0.633-0.282-0.986-0.282c-0.738,0-1.459,0.414-1.88,1.081
		L25.719,22.894l-4.391,6.943l-0.573,0.903l-4.393,6.941l-0.512,0.811l-4.393,6.943l-0.374,0.591l-3.794,5.999l-5.105,8.068
		c-0.324,0.512-0.442,1.105-0.333,1.672c0.103,0.537,0.4,0.984,0.837,1.261l30.421,19.247c0.909,0.574,2.24,0.193,2.868-0.799
		l3.897-6.16l1.095,0.723l1.095,0.719l9.79,6.441c1.599-2.403,5.309-7.947,6.446-9.359L69.864,54.166z M62.664,23.437l1.124-1.777
		c0.698-1.105,2.108-1.469,3.146-0.812l1.67,1.058c1.037,0.656,1.314,2.083,0.613,3.188l-1.123,1.779
		c-0.699,1.105-2.107,1.467-3.145,0.811l-1.671-1.058C62.241,25.969,61.964,24.542,62.664,23.437z"/>
</g>
<g>
	<path fill="#ABACAD" d="M343.824,26.524l2.386,1.754l4.394-6.943l-1.924-1.414c-1.516-1.115-3.427-1.091-4.268,0.054l-1.807,2.456
		C341.763,23.576,342.308,25.408,343.824,26.524z"/>
	<path fill="#ABACAD" d="M335.967,32.242l5.279,3.883l4.391-6.943l-4.815-3.542c-1.515-1.114-3.425-1.09-4.269,0.054l-1.807,2.456
		C333.906,29.293,334.451,31.128,335.967,32.242z"/>
	<path fill="#ABACAD" d="M332.324,40.922l4.017,2.956l4.392-6.943l-3.553-2.613c-1.516-1.116-3.427-1.089-4.268,0.054l-1.807,2.456
		C330.264,37.977,330.809,39.808,332.324,40.922z"/>
	<path fill="#ABACAD" d="M329.888,48.787l2.285,1.68l3.794-5.998l-1.883-1.385c-1.311-0.963-2.961-0.942-3.688,0.047l-1.562,2.122
		C328.106,46.241,328.58,47.824,329.888,48.787z"/>
	<path fill="#ABACAD" d="M408.256,55.669l-2.27-1.37c-2.414-1.456-4.97-1.641-5.869-0.475c-0.26,0.745-0.656,1.445-1.197,2.053
		l-11.494,19.585c-0.436,0.519-1.515,2.062-2.731,3.843l-2.739,4.537c-0.797,1.32,0.588,3.617,3.094,5.132l2.267,1.37
		c2.507,1.512,5.185,1.669,5.983,0.348l18.049-29.89C412.147,59.479,410.76,57.182,408.256,55.669z"/>
	<path fill="#ABACAD" d="M396.864,54.166c0.706-0.752,1.032-1.772,0.89-2.799c-0.1-0.809-0.473-1.543-1.053-2.09l-6.434-6.036
		l-0.971-0.914l-0.975-0.914l-2.012-1.888l-8.029-7.539c-1.281-1.204-3.424-1.187-4.679,0.02c-0.298,0.656-1.333,3.354,0.118,6.433
		l4.196,6.377c1.155,1.758,1.986,3.002,2.587,3.889c1.173,1.739,1.449,2.087,1.465,2.107l0.229,0.281l0.543,0.673l-0.874,0.865
		c-0.013,0.014-0.646,0.619-1.69,1.66c-1.27,1.263-3.148,3.17-5.289,5.453c-3.119,3.333-7.987,11.509-9.703,14.456l-1.326,1.443
		c0,0-0.858,0.855-1.893,0.392c-1.037-0.465-0.85-0.575-1.399-0.924l-25.117-15.892c-1.276-0.807-1.675-2.461-0.893-3.697
		l1.427-2.255l3.795-5.998l0.379-0.601l4.389-6.934l0.695-1.102l4.123-6.516l0.656-1.036l4.393-6.944l7.205-11.386
		c0.781-1.236,2.447-1.585,3.723-0.778l25.117,15.891c1.275,0.808,1.675,2.463,0.893,3.699l-3.584,5.665l2.012,1.887l9.148-14.458
		c0.65-1.028,0.425-2.344-0.507-2.933L367.998,2.477c-0.292-0.185-0.633-0.282-0.986-0.282c-0.738,0-1.459,0.414-1.88,1.081
		l-12.413,19.618l-4.391,6.943l-0.572,0.903l-4.394,6.941l-0.512,0.811l-4.394,6.943l-0.373,0.591l-3.795,5.999l-5.105,8.068
		c-0.323,0.512-0.441,1.105-0.332,1.672c0.103,0.537,0.4,0.984,0.837,1.261l30.421,19.247c0.908,0.574,2.24,0.193,2.868-0.799
		l3.897-6.16l1.094,0.723l1.096,0.719l9.79,6.441c1.599-2.403,5.309-7.947,6.446-9.359L396.864,54.166z M389.664,23.437l1.124-1.777
		c0.698-1.105,2.108-1.469,3.146-0.812l1.67,1.058c1.037,0.656,1.314,2.083,0.613,3.188l-1.123,1.779
		c-0.699,1.105-2.107,1.467-3.145,0.811l-1.671-1.058C389.241,25.969,388.964,24.542,389.664,23.437z"/>
</g>
</svg>
