<?xml version="1.0" encoding="utf-8"?>
<!-- Generator: Adobe Illustrator 16.2.1, SVG Export Plug-In . SVG Version: 6.00 Build 0)  -->
<!DOCTYPE svg PUBLIC "-//W3C//DTD SVG 1.1//EN" "http://www.w3.org/Graphics/SVG/1.1/DTD/svg11.dtd">
<svg version="1.1" id="Icons" xmlns="http://www.w3.org/2000/svg" xmlns:xlink="http://www.w3.org/1999/xlink" x="0px" y="0px"
	 width="417.562px" height="94.333px" viewBox="0 0 417.562 94.333" enable-background="new 0 0 417.562 94.333"
	 xml:space="preserve">
<g>
	<path fill="#007CC2" d="M133.314,60.795c-0.329-0.644-0.699-1.363-1.102-2.128c0.34-0.357,0.552-0.841,0.552-1.372
		c0-1.104-0.896-2-1.998-2h-0.402c-0.146-0.251-0.289-0.502-0.437-0.756c-2.59-4.423-5.824-8.771-10.488-14.1
		c-7.068-8.08-13.059-13.088-19.426-16.244C93.453,20.947,86.216,19.5,76.55,19.5c-4.915,0-10.277,0.259-16.197,2.152
		c-7.711,2.464-14.2,7.147-19.285,13.919c-0.085,0.113-0.154,0.272-0.319,0.358c0,0-0.463,0.028-0.492,0.028
		c-12.36,0.085-24.492,4.395-29.091,8.565l-0.006,0.002l-2.153,1.942c-0.475,0.229-3.544,0.149-3.544,2.143v3.656
		c0,0.059,0.004,0.118,0.009,0.175c0,0.276,0,0.556,0.001,0.823c-0.26,0.656-0.503,1.334-0.736,2.031h-0.74
		c-1.102,0-1.998,0.895-1.998,2c0,1.058,0.824,1.921,1.866,1.988c-0.074,1.273,0.055,2.164,0.055,2.164
		c1.399,0.118,2.236-0.463,2.395-1.644c0.839-6.15,7.209-10.351,13.718-10.351c7.114,0,13.029,5.233,14.097,12.051
		c0.113,0.726,1.268,3.535,5.95,3.535c6.127,0,47.014,0,47.014,0c3.719,0,4.148-2.764,4.252-3.462
		c1.035-6.855,6.969-12.127,14.108-12.127c6.637,0,12.233,4.558,13.818,10.707c0.294,1.138,1.245,3.565,6.86,3.565
		c2.946,0,5.004-0.326,5.771-0.47c0.229-0.015,0.457-0.072,0.675-0.182C133.409,62.645,133.74,61.629,133.314,60.795z
		 M74.209,37.604h-0.7h-4.215H45.97c-0.605,0-1.096-0.482-1.096-1.076c0-0.162,0.038-0.313,0.099-0.448
		c9.732-11.749,22.194-13.04,29.234-13.18L74.209,37.604L74.209,37.604z M109.616,37.604H77.591V22.888
		c13.771,0.157,22.755,3.497,32.625,12.785C110.334,35.786,112.053,37.604,109.616,37.604z"/>
	<circle fill="#007CC2" cx="105.46" cy="63.723" r="2.275"/>
	<path fill="#007CC2" d="M105.46,53.097c-5.861,0-10.628,4.764-10.628,10.625c0,5.858,4.767,10.625,10.628,10.625
		c5.856,0,10.62-4.767,10.62-10.625C116.08,57.861,111.314,53.097,105.46,53.097z M105.46,70.12c-3.532,0-6.4-2.873-6.4-6.397
		c0-3.53,2.872-6.398,6.4-6.398c3.526,0,6.395,2.872,6.395,6.398C111.855,67.25,108.984,70.12,105.46,70.12z"/>
	<circle fill="#007CC2" cx="20.036" cy="63.723" r="2.275"/>
	<path fill="#007CC2" d="M20.036,53.097c-0.916,0-1.804,0.117-2.654,0.335c-4.581,1.18-7.972,5.344-7.972,10.291
		c0,4.941,3.393,9.107,7.972,10.289c0.85,0.218,1.738,0.336,2.654,0.336c5.858,0,10.626-4.767,10.626-10.625
		C30.66,57.861,25.894,53.097,20.036,53.097z M13.638,63.722c0-3.532,2.871-6.399,6.396-6.399c3.528,0,6.399,2.872,6.399,6.399
		c0,3.526-2.871,6.395-6.399,6.395C16.509,70.12,13.638,67.25,13.638,63.722z"/>
</g>
<g>
	<path fill="#ABACAD" d="M411.814,60.795c-0.33-0.644-0.699-1.363-1.103-2.128c0.341-0.357,0.552-0.841,0.552-1.372
		c0-1.104-0.896-2-1.998-2h-0.401c-0.146-0.251-0.289-0.502-0.437-0.756c-2.59-4.423-5.824-8.771-10.488-14.1
		c-7.068-8.08-13.059-13.088-19.426-16.244c-6.561-3.249-13.797-4.696-23.463-4.696c-4.915,0-10.277,0.259-16.197,2.152
		c-7.711,2.464-14.201,7.147-19.285,13.919c-0.085,0.113-0.154,0.272-0.318,0.358c0,0-0.463,0.028-0.492,0.028
		c-12.359,0.085-24.492,4.395-29.091,8.565l-0.007,0.002l-2.152,1.942c-0.475,0.229-3.544,0.149-3.544,2.143v3.656
		c0,0.059,0.004,0.118,0.009,0.175c0,0.276,0,0.556,0.002,0.823c-0.26,0.656-0.504,1.334-0.736,2.031h-0.74
		c-1.103,0-1.998,0.895-1.998,2c0,1.058,0.824,1.921,1.865,1.988c-0.074,1.273,0.056,2.164,0.056,2.164
		c1.399,0.118,2.235-0.463,2.396-1.644c0.838-6.15,7.209-10.351,13.717-10.351c7.115,0,13.029,5.233,14.098,12.051
		c0.113,0.726,1.268,3.535,5.95,3.535c6.127,0,47.014,0,47.014,0c3.72,0,4.147-2.764,4.252-3.462
		c1.035-6.855,6.97-12.127,14.108-12.127c6.637,0,12.232,4.558,13.817,10.707c0.294,1.138,1.245,3.565,6.86,3.565
		c2.945,0,5.004-0.326,5.771-0.47c0.229-0.015,0.457-0.072,0.675-0.182C411.908,62.645,412.24,61.629,411.814,60.795z
		 M352.709,37.604h-0.699h-4.215H324.47c-0.604,0-1.096-0.482-1.096-1.076c0-0.162,0.038-0.313,0.099-0.448
		c9.732-11.749,22.195-13.04,29.234-13.18L352.709,37.604L352.709,37.604z M388.115,37.604h-32.024V22.888
		c13.771,0.157,22.755,3.497,32.624,12.785C388.834,35.786,390.553,37.604,388.115,37.604z"/>
	<circle fill="#ABACAD" cx="383.96" cy="63.723" r="2.275"/>
	<path fill="#ABACAD" d="M383.96,53.097c-5.86,0-10.628,4.764-10.628,10.625c0,5.858,4.768,10.625,10.628,10.625
		c5.856,0,10.62-4.767,10.62-10.625C394.58,57.861,389.814,53.097,383.96,53.097z M383.96,70.12c-3.532,0-6.4-2.873-6.4-6.397
		c0-3.53,2.872-6.398,6.4-6.398c3.526,0,6.396,2.872,6.396,6.398C390.355,67.25,387.484,70.12,383.96,70.12z"/>
	<circle fill="#ABACAD" cx="298.535" cy="63.723" r="2.275"/>
	<path fill="#ABACAD" d="M298.535,53.097c-0.915,0-1.804,0.117-2.653,0.335c-4.581,1.18-7.972,5.344-7.972,10.291
		c0,4.941,3.393,9.107,7.972,10.289c0.85,0.218,1.738,0.336,2.653,0.336c5.858,0,10.627-4.767,10.627-10.625
		C309.16,57.861,304.394,53.097,298.535,53.097z M292.138,63.722c0-3.532,2.871-6.399,6.396-6.399c3.529,0,6.399,2.872,6.399,6.399
		c0,3.526-2.87,6.395-6.399,6.395C295.009,70.12,292.138,67.25,292.138,63.722z"/>
</g>
</svg>
