<?xml version="1.0" encoding="utf-8"?>
<!-- Generator: Adobe Illustrator 16.2.1, SVG Export Plug-In . SVG Version: 6.00 Build 0)  -->
<!DOCTYPE svg PUBLIC "-//W3C//DTD SVG 1.1//EN" "http://www.w3.org/Graphics/SVG/1.1/DTD/svg11.dtd">
<svg version="1.1" id="Icons" xmlns="http://www.w3.org/2000/svg" xmlns:xlink="http://www.w3.org/1999/xlink" x="0px" y="0px"
	 width="417.562px" height="94.333px" viewBox="0 0 417.562 94.333" enable-background="new 0 0 417.562 94.333"
	 xml:space="preserve">
<g>
	<rect x="69.406" y="75.023" fill="#007CC2" width="16.852" height="16.852"/>
	<rect x="46.938" y="63.789" fill="#007CC2" width="16.852" height="28.086"/>
	<rect x="24.469" y="52.555" fill="#007CC2" width="16.852" height="39.32"/>
	<rect x="2" y="41.32" fill="#007CC2" width="16.852" height="50.555"/>
	<polygon fill="#007CC2" points="82.822,39.137 24.469,2 72.215,49.746 63.789,58.172 91.875,58.172 91.875,30.086 	"/>
</g>
<g>
	<rect x="389.391" y="75.023" fill="#ABACAD" width="16.852" height="16.852"/>
	<rect x="366.922" y="63.789" fill="#ABACAD" width="16.852" height="28.086"/>
	<rect x="344.453" y="52.555" fill="#ABACAD" width="16.852" height="39.32"/>
	<rect x="321.984" y="41.32" fill="#ABACAD" width="16.852" height="50.555"/>
	<polygon fill="#ABACAD" points="402.807,39.137 344.453,2 392.199,49.746 383.773,58.172 411.859,58.172 411.859,30.086 	"/>
</g>
</svg>
