<?xml version="1.0" encoding="utf-8"?>
<!-- Generator: Adobe Illustrator 16.2.1, SVG Export Plug-In . SVG Version: 6.00 Build 0)  -->
<!DOCTYPE svg PUBLIC "-//W3C//DTD SVG 1.1//EN" "http://www.w3.org/Graphics/SVG/1.1/DTD/svg11.dtd">
<svg version="1.1" id="Layer_1" xmlns="http://www.w3.org/2000/svg" xmlns:xlink="http://www.w3.org/1999/xlink" x="0px" y="0px"
	 width="114.167px" height="126.5px" viewBox="0 0 114.167 126.5" enable-background="new 0 0 114.167 126.5" xml:space="preserve">
<g>
	<path fill="#CCE6F5" d="M60.59,83.385h-2.511v11.809h2.531c2.267-0.06,2.53-1.477,2.53-2.53v-6.748
		C63.141,84.86,62.877,83.443,60.59,83.385z"/>
	<path fill="#CCE6F5" d="M47.134,74.949h2.511V63.141h-2.518c-2.28,0.065-2.544,1.476-2.544,2.53v6.748
		C44.583,73.474,44.847,74.89,47.134,74.949z"/>
	<path fill="#CCE6F5" d="M70.731,35.305c-6.748-6.748,13.496-13.496,13.496-20.244s-13.496-6.748-26.992,0
		c-13.495-6.748-26.991-6.748-26.991,0S50.487,28.557,43.74,35.305C36.992,42.053,10,55.549,10,89.289
		c0,33.739,5.838,26.992,47.235,26.992c39.579,0,47.236,5.838,47.236-26.992C104.472,55.549,77.479,42.053,70.731,35.305z
		 M60.61,74.949c4.408,0,10.965,2.92,10.965,10.966v6.748c0,8.046-6.557,10.965-10.965,10.965h-2.531v2.531
		c0,2.326-1.891,4.217-4.217,4.217s-4.218-1.891-4.218-4.217v-2.531h-9.278c-2.326,0-4.218-1.891-4.218-4.217
		s1.892-4.218,4.218-4.218h9.278V83.385h-2.53c-4.409,0-10.966-2.92-10.966-10.966v-6.748c0-8.046,6.557-10.966,10.966-10.966h2.53
		v-2.53c0-2.326,1.892-4.218,4.218-4.218s4.217,1.892,4.217,4.218v2.53h9.278c2.326,0,4.218,1.892,4.218,4.218
		s-1.892,4.218-4.218,4.218h-9.278v11.809H60.61z"/>
</g>
</svg>
