<?xml version="1.0" encoding="utf-8"?>
<!-- Generator: Adobe Illustrator 16.2.1, SVG Export Plug-In . SVG Version: 6.00 Build 0)  -->
<!DOCTYPE svg PUBLIC "-//W3C//DTD SVG 1.1//EN" "http://www.w3.org/Graphics/SVG/1.1/DTD/svg11.dtd">
<svg version="1.1" id="Icons" xmlns="http://www.w3.org/2000/svg" xmlns:xlink="http://www.w3.org/1999/xlink" x="0px" y="0px"
	 width="417.562px" height="94.333px" viewBox="0 0 417.562 94.333" enable-background="new 0 0 417.562 94.333"
	 xml:space="preserve">
<g>
	<g id="Layer_2">
		<path fill="#007CC2" stroke="#FFFFFF" stroke-width="2.1702" d="M42.587,4.373"/>
		<path fill="#007CC2" stroke="#FFFFFF" stroke-width="2.1702" d="M42.587,12.984"/>
		<path fill="#007CC2" d="M99.645,45.4c-0.621-1.135-3.105-5.789-10.396-10.67c-5.539-3.708-10.898-4.678-13.23-4.696
			c-3.829-0.032-6.783,0.778-7.643,4.242c-0.836,3.379,3.071,5.508,5.927,6.944l-9.882,4.25H45.458v3.992h-5.742v-3.992H15.097
			l4.256-9.655l-1.301-4.306l-6.119,14.033L2,51.548l0.016,25.571h4.486l-0.004,8.373c0,3.594,2.901,6.51,6.496,6.51
			c3.593,0,6.508-2.918,6.508-6.51l-0.008-8.373h43.387l-0.006,8.373c0,3.594,2.912,6.51,6.5,6.51c3.596,0,6.506-2.918,6.506-6.51
			l-0.006-8.373h4.482l0.021-25.571l-3.448-2.085l6.784-2.92c2.438,1.826,5.117,5.209,6.369,7.138c0,0,0.676,1.242,1.125,2.813
			c0.4,1.402,0.612,3.396,0.686,4.179v26.231c0,2.774,2.248,5.022,5.023,5.022c2.774,0,5.024-2.248,5.024-5.022V55.687
			C101.944,53.488,101.677,49.105,99.645,45.4z M12.833,65.829c-3.014,0-5.443-2.438-5.443-5.464c0-3.006,2.431-5.444,5.443-5.444
			c3.008,0,5.454,2.438,5.454,5.444C18.288,63.389,15.841,65.829,12.833,65.829z M26.165,67.91l0.006-9.803
			c0-1.359,1.098-2.459,2.451-2.459l25.942-0.047c1.356,0,2.454,1.115,2.454,2.464l0.006,9.812L26.165,67.91z M69.541,65.829
			c-3.006,0-5.445-2.438-5.445-5.464c0-3.006,2.439-5.444,5.445-5.444c3.011,0,5.447,2.438,5.447,5.444
			C74.988,63.389,72.552,65.829,69.541,65.829z"/>
	</g>
	<g id="Layer_3">
		<path fill="#007CC2" d="M65.16,8.393H45.458V3.417h-5.742v4.977H19.264c-4.176,0-7.266,2.736-5.736,8.202l4.506,14.982
			l7.375-16.889l3.095,0.046l-9.196,21.081l1.929,6.413c0,0,9.688-2.629,20.335-2.629c10.885,0,21.827,2.629,21.827,2.629
			l2.193-6.962c-1.385,1.29-3.33,1.931-5.314,1.536c-3.287-0.657-5.426-3.893-4.76-7.218c0.665-3.335,3.885-5.49,7.171-4.828
			c2.444,0.486,4.236,2.387,4.736,4.69l4.048-12.851C72.246,12.065,70.004,8.393,65.16,8.393z"/>
	</g>
</g>
<g>
	<g id="Layer_2_1_">
		<path fill="#ABACAD" d="M352.588,4.373"/>
		<path fill="#ABACAD" d="M352.588,12.984"/>
		<path fill="#ABACAD" d="M409.645,45.4c-0.621-1.135-3.105-5.789-10.396-10.67c-5.539-3.708-10.898-4.678-13.23-4.696
			c-3.829-0.032-6.783,0.778-7.643,4.242c-0.836,3.379,3.071,5.508,5.927,6.944l-9.882,4.25h-18.961v3.992h-5.742v-3.992h-24.619
			l4.256-9.655l-1.302-4.306l-6.119,14.033L312,51.548l0.016,25.571h4.486l-0.004,8.373c0,3.594,2.9,6.51,6.496,6.51
			c3.594,0,6.508-2.918,6.508-6.51l-0.008-8.373h43.387l-0.006,8.373c0,3.594,2.912,6.51,6.5,6.51c3.596,0,6.506-2.918,6.506-6.51
			l-0.006-8.373h4.482l0.021-25.571l-3.448-2.085l6.784-2.92c2.438,1.826,5.117,5.209,6.369,7.138c0,0,0.676,1.242,1.125,2.813
			c0.4,1.402,0.612,3.396,0.686,4.179v26.231c0,2.774,2.248,5.022,5.023,5.022c2.774,0,5.024-2.248,5.024-5.022V55.687
			C411.944,53.488,411.677,49.105,409.645,45.4z M322.834,65.829c-3.015,0-5.443-2.438-5.443-5.464c0-3.006,2.431-5.444,5.443-5.444
			c3.008,0,5.453,2.438,5.453,5.444C328.287,63.389,325.842,65.829,322.834,65.829z M336.164,67.91l0.006-9.803
			c0-1.359,1.098-2.459,2.451-2.459l25.942-0.047c1.356,0,2.454,1.115,2.454,2.464l0.006,9.812L336.164,67.91z M379.541,65.829
			c-3.006,0-5.445-2.438-5.445-5.464c0-3.006,2.439-5.444,5.445-5.444c3.011,0,5.447,2.438,5.447,5.444
			C384.988,63.389,382.552,65.829,379.541,65.829z"/>
	</g>
	<g id="Layer_3_1_">
		<path fill="#ABACAD" d="M375.16,8.393h-19.701V3.417h-5.742v4.977h-20.453c-4.176,0-7.266,2.736-5.736,8.202l4.506,14.982
			l7.375-16.889l3.096,0.046l-9.196,21.081l1.929,6.413c0,0,9.688-2.629,20.335-2.629c10.886,0,21.827,2.629,21.827,2.629
			l2.193-6.962c-1.385,1.29-3.33,1.931-5.314,1.536c-3.287-0.657-5.426-3.893-4.76-7.218c0.665-3.335,3.885-5.49,7.171-4.828
			c2.444,0.486,4.236,2.387,4.736,4.69l4.048-12.851C382.246,12.065,380.004,8.393,375.16,8.393z"/>
	</g>
</g>
</svg>
