<?xml version="1.0" encoding="utf-8"?>
<!-- Generator: Adobe Illustrator 16.2.1, SVG Export Plug-In . SVG Version: 6.00 Build 0)  -->
<!DOCTYPE svg PUBLIC "-//W3C//DTD SVG 1.1//EN" "http://www.w3.org/Graphics/SVG/1.1/DTD/svg11.dtd">
<svg version="1.1" id="Layer_1" xmlns="http://www.w3.org/2000/svg" xmlns:xlink="http://www.w3.org/1999/xlink" x="0px" y="0px"
	 width="130.74px" height="192.216px" viewBox="0 0 130.74 192.216" enable-background="new 0 0 130.74 192.216"
	 xml:space="preserve">
<g>
	<path fill="#CCE6F5" d="M103.554,110.037c11.216-10.08,18.269-24.698,18.269-40.96C121.822,38.659,97.169,14,66.749,14
		c-30.417,0-55.076,24.659-55.076,55.077c0,16.262,7.056,30.88,18.273,40.96L10,164.843l28.409-9.396l15.621,25.422l12.72-34.947
		l12.719,34.947l15.619-25.422l28.413,9.396L103.554,110.037z M66.749,118.19c-27.124,0-49.114-21.991-49.114-49.113
		c0-27.129,21.99-49.119,49.114-49.119c27.128,0,49.116,21.991,49.116,49.119C115.865,96.199,93.877,118.19,66.749,118.19z"/>
	<path fill="#CCE6F5" d="M66.749,24.891c-24.343,0-44.082,19.736-44.082,44.084c0,24.339,19.738,44.078,44.082,44.078
		c24.347,0,44.082-19.739,44.082-44.078C110.829,44.627,91.096,24.891,66.749,24.891z M58.776,91.776l-8.556-4.578l-8.62,4.45
		l1.71-9.548l-6.896-6.825l9.609-1.326l4.357-8.666l4.232,8.731l9.592,1.465l-7,6.719L58.776,91.776z M66.662,58.427l-8.623,4.45
		l1.713-9.551l-6.897-6.822l9.61-1.323l4.359-8.668l4.229,8.735l9.591,1.465l-6.998,6.721l1.572,9.569L66.662,58.427z
		 M91.658,91.776l-8.556-4.578l-8.621,4.45l1.709-9.548l-6.897-6.825l9.612-1.326l4.358-8.666l4.232,8.731l9.588,1.465l-6.997,6.719
		L91.658,91.776z"/>
</g>
</svg>
